/* XPM */
static char *dark_yellow_walls_32x32[] = {
/* columns rows colors chars-per-pixel */
"32 32 3 1",
/* colors */
"  c #000000",      /* Outline/Shadow */
"D c #CCAA00",      /* Dark Yellow */
"L c #EEDD00",      /* Lighter Dark Yellow (for texture) */
/* pixels */
"DDDDDDDDDDDDDDDDDDDDDDDDDDDDDDDD",
"DDDDDDDDDDDDDDDDDDDDDDDDDDDDDDDD",
"DDDDDDDDDDDDDDDDDDDDDDDDDDDDDDDD",
"DDDDDDDDDDDDDDDDDDDDDDDDDDDDDDDD",
"DDLDLDLDLDLDLDLDLDLDLDLDLDLDLDLD",
"DDDDDDDDDDDDDDDDDDDDDDDDDDDDDDDD",
"DDDDDDDDDDDDDDDDDDDDDDDDDDDDDDDD",
"DDLDLDLDLDLDLDLDLDLDLDLDLDLDLDLD",
"DDDDDDDDDDDDDDDDDDDDDDDDDDDDDDDD",
"DDDDDDDDDDDDDDDDDDDDDDDDDDDDDDDD",
"DDLDLDLDLDLDLDLDLDLDLDLDLDLDLDLD",
"DDDDDDDDDDDDDDDDDDDDDDDDDDDDDDDD",
"DDDDDDDDDDDDDDDDDDDDDDDDDDDDDDDD",
"DDLDLDLDLDLDLDLDLDLDLDLDLDLDLDLD",
"DDDDDDDDDDDDDDDDDDDDDDDDDDDDDDDD",
"DDDDDDDDDDDDDDDDDDDDDDDDDDDDDDDD",
"DDLDLDLDLDLDLDLDLDLDLDLDLDLDLDLD",
"DDDDDDDDDDDDDDDDDDDDDDDDDDDDDDDD",
"DDDDDDDDDDDDDDDDDDDDDDDDDDDDDDDD",
"DDLDLDLDLDLDLDLDLDLDLDLDLDLDLDLD",
"DDDDDDDDDDDDDDDDDDDDDDDDDDDDDDDD",
"DDDDDDDDDDDDDDDDDDDDDDDDDDDDDDDD",
"DDLDLDLDLDLDLDLDLDLDLDLDLDLDLDLD",
"DDDDDDDDDDDDDDDDDDDDDDDDDDDDDDDD",
"DDDDDDDDDDDDDDDDDDDDDDDDDDDDDDDD",
"DDLDLDLDLDLDLDLDLDLDLDLDLDLDLDLD",
"DDDDDDDDDDDDDDDDDDDDDDDDDDDDDDDD",
"DDDDDDDDDDDDDDDDDDDDDDDDDDDDDDDD",
"DDLDLDLDLDLDLDLDLDLDLDLDLDLDLDLD",
"DDDDDDDDDDDDDDDDDDDDDDDDDDDDDDDD",
"DDDDDDDDDDDDDDDDDDDDDDDDDDDDDDDD",
"DDDDDDDDDDDDDDDDDDDDDDDDDDDDDDDD"
};